<svg width="480" height="320" viewBox="0 0 480 320" fill="none" xmlns="http://www.w3.org/2000/svg">
  <rect width="480" height="320" rx="28" fill="#F5F5F7"/>
  <path d="M76 98C68.268 134.916 82.5351 191.769 121.966 215.642C161.397 239.516 218.01 212.987 257.44 189.113C296.871 165.239 325.616 140.403 343.675 110.213C361.735 80.0226 369.108 44.4777 349.923 31.3241C330.737 18.1705 284.992 27.4089 245.561 51.2826C206.131 75.1564 173.017 113.666 143.191 123.874C113.365 134.082 83.732 61.0844 76 98Z" fill="url(#paint0_linear)"/>
  <path d="M146.309 112.435C129.797 137.648 132.271 178.314 155.537 197.55C178.804 216.787 221.872 214.633 248.384 187.16C274.896 159.688 284.72 106.897 265.912 83.7317C247.104 60.5666 191.22 70.2151 167.954 50.9783C144.688 31.7415 162.822 87.2218 146.309 112.435Z" fill="url(#paint1_linear)" fill-opacity="0.8"/>
  <g opacity="0.45">
    <circle cx="218" cy="152" r="52" fill="url(#paint2_radial)"/>
    <circle cx="326" cy="128" r="26" fill="url(#paint3_radial)"/>
    <circle cx="140" cy="174" r="22" fill="url(#paint4_radial)"/>
  </g>
  <g>
    <circle cx="212" cy="168" r="18" fill="#F6A03E"/>
    <text x="212" y="171" fill="#1F1F24" font-family="Inter, sans-serif" font-size="10" font-weight="600" text-anchor="middle">10</text>
  </g>
  <g>
    <circle cx="308" cy="140" r="16" fill="#FF8B60"/>
    <text x="308" y="143" fill="#1F1F24" font-family="Inter, sans-serif" font-size="9" font-weight="600" text-anchor="middle">5</text>
  </g>
  <g>
    <circle cx="164" cy="204" r="14" fill="#F6A03E"/>
    <text x="164" y="207" fill="#1F1F24" font-family="Inter, sans-serif" font-size="8" font-weight="600" text-anchor="middle">4</text>
  </g>
  <g>
    <circle cx="258" cy="108" r="12" fill="#FF8B60"/>
    <text x="258" y="111" fill="#1F1F24" font-family="Inter, sans-serif" font-size="7" font-weight="600" text-anchor="middle">3</text>
  </g>
  <defs>
    <linearGradient id="paint0_linear" x1="78.5" y1="175.5" x2="340.5" y2="40" gradientUnits="userSpaceOnUse">
      <stop stop-color="#ECE8FF"/>
      <stop offset="1" stop-color="#C7C2FF" stop-opacity="0.8"/>
    </linearGradient>
    <linearGradient id="paint1_linear" x1="132" y1="178" x2="290" y2="67" gradientUnits="userSpaceOnUse">
      <stop stop-color="#FFE6D9"/>
      <stop offset="1" stop-color="#FFB078"/>
    </linearGradient>
    <radialGradient id="paint2_radial" cx="0" cy="0" r="1" gradientUnits="userSpaceOnUse" gradientTransform="rotate(66.3 68.1 229.6) scale(66.3027)">
      <stop stop-color="#FF8B60" stop-opacity="0.4"/>
      <stop offset="1" stop-color="#FF8B60" stop-opacity="0"/>
    </radialGradient>
    <radialGradient id="paint3_radial" cx="0" cy="0" r="1" gradientUnits="userSpaceOnUse" gradientTransform="rotate(66.3 116.3 284.1) scale(33.1688)">
      <stop stop-color="#F6A03E" stop-opacity="0.45"/>
      <stop offset="1" stop-color="#F6A03E" stop-opacity="0"/>
    </radialGradient>
    <radialGradient id="paint4_radial" cx="0" cy="0" r="1" gradientUnits="userSpaceOnUse" gradientTransform="rotate(66.3 42.1 250.8) scale(28.1901)">
      <stop stop-color="#FF8B60" stop-opacity="0.38"/>
      <stop offset="1" stop-color="#FF8B60" stop-opacity="0"/>
    </radialGradient>
  </defs>
</svg>
